Patient4_TMGait_0pt5_01_right_32_GRF.mot
version=1
nRows=32
nColumns=19
inDegrees=no
endheader
time	F1x	F1y	F1z	M1x	M1y	M1z	F2x	F2y	F2z	M2x	M2y	M2z	EC1x	EC1y	EC1z	EC2x	EC2y	EC2z
42.07	-8.208	832.5054	74.438	-314.8983	-64.0592	753.8763	-14.5887	1.8362	-21.4744	8.1095	16.6376	-7.2218	-0.0592	0.0182	-0.0073	-0.0462	0.0165	0.9585
42.0833	-7.5913	821.1098	73.8314	-310.3683	-62.9971	740.0987	-10.0305	2.3334	-14.8498	5.9941	11.5878	-3.8022	-0.0592	0.0182	-0.0073	-0.0462	0.0165	0.9585
42.0966	-6.7646	805.5638	73.1465	-304.2032	-61.7992	722.581	-6.1286	2.7532	-9.0743	4.1475	7.1624	-0.9098	-0.0592	0.0182	-0.0073	-0.0462	0.0165	0.9585
42.1099	-5.7742	786.2471	72.3537	-296.5741	-60.4648	701.8486	-3.1206	3.0839	-4.5759	2.7101	3.7032	1.3013	-0.0592	0.0182	-0.0073	-0.0462	0.0165	0.9585
42.1231	-4.6686	764.2088	71.4613	-287.9038	-59.0273	678.9075	-1.0329	3.3404	-1.3887	1.7019	1.2518	2.8622	-0.0592	0.0182	-0.0073	-0.0462	0.0165	0.9585
42.1364	-3.4971	741.0292	70.4914	-278.8147	-57.5297	655.1431	0.26437	3.5078	0.63567	1.0628	-0.29586	3.8437	-0.0592	0.0182	-0.0073	-0.0462	0.0165	0.9585
42.1497	-2.2831	718.6095	69.4714	-270.0505	-56.0074	632.1535	0.93718	3.5735	1.7518	0.70159	-1.1368	4.3522	-0.0592	0.0182	-0.0073	-0.0462	0.0165	0.9585
42.163	-1.0134	698.8893	68.4238	-262.3665	-54.4697	611.5233	1.1599	3.5049	2.2124	0.51449	-1.4661	4.4712	-0.0592	0.0182	-0.0073	-0.0462	0.0165	0.9585
42.1763	0.36052	683.5755	67.3742	-256.4214	-52.9068	594.6172	1.0932	3.2338	2.2615	0.39658	-1.4769	4.2299	-0.0592	0.0182	-0.0073	-0.0462	0.0165	0.9585
42.1896	1.9328	673.9149	66.3559	-252.689	-51.2974	582.4024	0.84797	2.669	2.0815	0.24833	-1.308	3.6139	-0.0592	0.0182	-0.0073	-0.0462	0.0165	0.9585
42.2029	3.8104	670.5702	65.4081	-251.4105	-49.6235	575.372	0.53422	1.6958	1.816	-0.017878	-1.0785	2.5416	-0.0592	0.0182	-0.0073	-0.0462	0.0165	0.9585
42.2161	6.096	673.5557	64.5743	-252.5781	-47.8835	573.4973	0.21602	0.22029	1.5486	-0.46686	-0.85553	0.95215	-0.0592	0.0182	-0.0073	-0.0462	0.0165	0.9585
42.2294	8.8546	682.2607	63.8927	-255.9453	-46.0909	576.2391	-0.027705	-1.8149	1.3347	-1.135	-0.69422	-1.204	-0.0592	0.0182	-0.0073	-0.0462	0.0165	0.9585
42.2427	12.09	695.5082	63.3949	-261.0438	-44.2768	582.614	-0.12098	-4.3593	1.1921	-2.0115	-0.62698	-3.871	-0.0592	0.0182	-0.0073	-0.0462	0.0165	0.9585
42.256	15.7517	711.6271	63.097	-267.2207	-42.4774	591.2654	0.015851	-7.1817	1.1301	-3.0116	-0.68999	-6.8174	-0.0592	0.0182	-0.0073	-0.0462	0.0165	0.9585
42.2693	19.7333	728.619	63.0019	-273.6994	-40.7387	600.6103	0.48127	-9.7884	1.1341	-3.9479	-0.90878	-9.557	-0.0592	0.0182	-0.0073	-0.0462	0.0165	0.9585
42.2826	23.9059	744.3479	63.0889	-279.656	-39.0984	608.9798	1.3611	-11.304	1.1839	-4.4892	-1.2982	-11.199	-0.0592	0.0182	-0.0073	-0.0462	0.0165	0.9585
42.2959	28.1309	756.7503	63.3079	-284.299	-37.5737	614.8055	2.7522	-10.4057	1.2452	-4.1355	-1.8542	-10.4033	-0.0592	0.0182	-0.0073	-0.0462	0.0165	0.9585
42.3091	32.2899	764.058	63.5381	-286.9567	-36.1184	616.7713	4.685	-5.2366	1.2773	-2.1913	-2.5463	-5.2763	-0.0592	0.0182	-0.0073	-0.0462	0.0165	0.9585
42.3224	36.2773	764.9506	63.5957	-287.1353	-34.6338	613.919	7.0977	6.5328	1.221	2.2125	-3.2946	6.5495	-0.0592	0.0182	-0.0073	-0.0462	0.0165	0.9585
42.3357	39.9937	758.5961	63.2599	-284.5345	-32.9881	605.67	9.7625	27.4925	0.99779	10.0392	-3.9415	27.7145	-0.0592	0.0182	-0.0073	-0.0462	0.0165	0.9585
42.349	43.3599	744.5766	62.338	-279.0168	-31.067	591.7529	12.186	60.0452	0.5117	22.1782	-4.2147	60.6861	-0.0592	0.0182	-0.0073	-0.0462	0.0165	0.9585
42.3623	46.2854	722.7506	60.674	-270.5517	-28.7821	572.0984	13.5406	105.6075	-0.34355	39.1484	-3.7126	106.9264	-0.0592	0.0182	-0.0073	-0.0462	0.0165	0.9585
42.3756	48.664	693.0753	58.1727	-259.1511	-26.0953	546.6936	12.5467	163.4505	-1.6715	60.6648	-1.8903	165.7361	-0.0592	0.0182	-0.0073	-0.0462	0.0165	0.9585
42.3889	50.3379	655.5355	54.7846	-244.8431	-23.019	515.5355	7.8758	229.7011	-3.5492	85.2611	1.788	233.2458	-0.0592	0.0182	-0.0073	-0.0462	0.0165	0.9585
42.4021	51.1016	610.2887	50.5669	-227.7178	-19.6657	478.7364	-0.48657	297.882	-6.3904	110.4707	7.7228	302.8953	-0.0592	0.0182	-0.0073	-0.0462	0.0165	0.9585
42.4154	50.7487	557.9118	45.7274	-208.011	-16.2563	436.7102	-11.2735	362.0973	-10.536	134.0596	15.7546	368.5913	-0.0592	0.0182	-0.0073	-0.0462	0.0165	0.9585
42.4287	49.0492	499.4983	40.6075	-186.1249	-13.1118	390.2965	-22.9119	420.4977	-15.5171	155.3348	24.833	428.2343	-0.0592	0.0182	-0.0073	-0.0462	0.0165	0.9585
42.442	45.8548	436.5157	35.5216	-162.5901	-10.5035	340.6193	-33.9737	473.8446	-20.7585	174.6139	33.8653	482.3766	-0.0592	0.0182	-0.0073	-0.0462	0.0165	0.9585
42.4553	41.1281	370.8656	30.6393	-138.0965	-8.5652	289.1406	-43.5749	523.3534	-25.6872	192.3977	41.9733	532.1287	-0.0592	0.0182	-0.0073	-0.0462	0.0165	0.9585
42.4686	34.9737	304.927	25.9917	-113.5105	-7.2881	237.6716	-51.2556	569.8481	-30.1198	209.0226	48.8272	578.2686	-0.0592	0.0182	-0.0073	-0.0462	0.0165	0.9585
42.4819	27.6947	241.4079	21.5885	-89.8237	-6.5851	188.2643	-56.9225	613.7159	-34.1708	224.6315	54.5304	621.1789	-0.0592	0.0182	-0.0073	-0.0462	0.0165	0.9585
